<svg xmlns="http://www.w3.org/2000/svg" viewBox="0 0 500 500">
  <path d="M 167.9 396.929 C 167.9 398.929 165.6 400.529 162.7 400.529 C 159.4 400.829 157.1 399.229 157.1 396.929 C 157.1 394.929 159.4 393.329 162.3 393.329 C 165.3 393.029 167.9 394.629 167.9 396.929 Z M 136.8 392.429 C 136.1 394.429 138.1 396.729 141.1 397.329 C 143.7 398.329 146.7 397.329 147.3 395.329 C 147.9 393.329 146 391.029 143 390.129 C 140.4 389.429 137.5 390.429 136.8 392.429 Z M 181 390.729 C 178.1 391.429 176.1 393.329 176.4 395.629 C 176.7 397.629 179.3 398.929 182.3 398.229 C 185.2 397.529 187.2 395.629 186.9 393.629 C 186.6 391.729 183.9 390.429 181 390.729 Z M 246.8 7.529 C 108.1 7.529 2 112.829 2 251.529 C 2 362.429 71.8 457.329 171.5 490.729 C 184.3 493.029 188.8 485.129 188.8 478.629 C 188.8 472.429 188.5 438.229 188.5 417.229 C 188.5 417.229 118.5 432.229 103.8 387.429 C 103.8 387.429 92.4 358.329 76 350.829 C 76 350.829 53.1 335.129 77.6 335.429 C 77.6 335.429 102.5 337.429 116.2 361.229 C 138.1 399.829 174.8 388.729 189.1 382.129 C 191.4 366.129 197.9 355.029 205.1 348.429 C 149.2 342.229 92.8 334.129 92.8 237.929 C 92.8 210.429 100.4 196.629 116.4 179.029 C 113.8 172.529 105.3 145.729 119 111.129 C 139.9 104.629 188 138.129 188 138.129 C 208 132.529 229.5 129.629 250.8 129.629 C 272.1 129.629 293.6 132.529 313.6 138.129 C 313.6 138.129 361.7 104.529 382.6 111.129 C 396.3 145.829 387.8 172.529 385.2 179.029 C 401.2 196.729 411 210.529 411 237.929 C 411 334.429 352.1 342.129 296.2 348.429 C 305.4 356.329 313.2 371.329 313.2 394.829 C 313.2 428.529 312.9 470.229 312.9 478.429 C 312.9 484.929 317.5 492.829 330.2 490.529 C 430.2 457.329 498 362.429 498 251.529 C 498 112.829 385.5 7.529 246.8 7.529 Z M 99.2 352.429 C 97.9 353.429 98.2 355.729 99.9 357.629 C 101.5 359.229 103.8 359.929 105.1 358.629 C 106.4 357.629 106.1 355.329 104.4 353.429 C 102.8 351.829 100.5 351.129 99.2 352.429 Z M 88.4 344.329 C 87.7 345.629 88.7 347.229 90.7 348.229 C 92.3 349.229 94.3 348.929 95 347.529 C 95.7 346.229 94.7 344.629 92.7 343.629 C 90.7 343.029 89.1 343.329 88.4 344.329 Z M 120.8 379.929 C 119.2 381.229 119.8 384.229 122.1 386.129 C 124.4 388.429 127.3 388.729 128.6 387.129 C 129.9 385.829 129.3 382.829 127.3 380.929 C 125.1 378.629 122.1 378.329 120.8 379.929 Z M 109.4 365.229 C 107.8 366.229 107.8 368.829 109.4 371.129 C 111 373.429 113.7 374.429 115 373.429 C 116.6 372.129 116.6 369.529 115 367.229 C 113.6 364.929 111 363.929 109.4 365.229 Z"/>
</svg>
