<?xml version="1.0" encoding="UTF-8"?>
<!DOCTYPE svg PUBLIC "-//W3C//DTD SVG 1.1//EN" "http://www.w3.org/Graphics/SVG/1.1/DTD/svg11.dtd">
<svg xmlns="http://www.w3.org/2000/svg" version="1.1" width="512px" height="512px" style="shape-rendering:geometricPrecision; text-rendering:geometricPrecision; image-rendering:optimizeQuality; fill-rule:evenodd; clip-rule:evenodd" xmlns:xlink="http://www.w3.org/1999/xlink">
<g><path style="opacity:0.998" fill="#ed6669" d="M 343.5,11.5 C 343.333,54.8346 343.5,98.1679 344,141.5C 347.5,154.333 355.667,162.5 368.5,166C 408.832,166.5 449.165,166.667 489.5,166.5C 489.667,264.167 489.5,361.834 489,459.5C 484.72,480.447 472.22,493.614 451.5,499C 345.833,499.667 240.167,499.667 134.5,499C 113.78,493.614 101.28,480.447 97,459.5C 96.5002,448.839 96.3335,438.172 96.5,427.5C 199.167,427.667 301.834,427.5 404.5,427C 408.027,426.14 410.193,423.973 411,420.5C 411.667,362.5 411.667,304.5 411,246.5C 409.833,244 408,242.167 405.5,241C 302.333,240.833 199.333,240.333 96.5,239.5C 96.3333,176.832 96.5,114.166 97,51.5C 101.28,30.553 113.78,17.3863 134.5,12C 204.166,11.5 273.833,11.3333 343.5,11.5 Z"/></g>
<g><path style="opacity:1" fill="#e5252a" d="M 343.5,11.5 C 392.871,62.5365 441.538,114.203 489.5,166.5C 449.165,166.667 408.832,166.5 368.5,166C 355.667,162.5 347.5,154.333 344,141.5C 343.5,98.1679 343.333,54.8346 343.5,11.5 Z"/></g>
<g><path style="opacity:0.999" fill="#e5262a" d="M 96.5,239.5 C 199.333,240.333 302.333,240.833 405.5,241C 408,242.167 409.833,244 411,246.5C 411.667,304.5 411.667,362.5 411,420.5C 410.193,423.973 408.027,426.14 404.5,427C 301.834,427.5 199.167,427.667 96.5,427.5C 73.4976,427.667 50.4976,427.5 27.5,427C 25.714,426.215 24.214,425.049 23,423.5C 21.8406,393.584 21.3406,363.584 21.5,333.5C 21.3406,303.416 21.8406,273.416 23,243.5C 24.7998,241.683 26.9664,240.516 29.5,240C 51.8308,239.5 74.1642,239.333 96.5,239.5 Z"/></g>
<g><path style="opacity:1" fill="#fefcfc" d="M 115.5,284.5 C 128.504,284.333 141.504,284.5 154.5,285C 164.567,287.4 171.067,293.566 174,303.5C 174.667,310.5 174.667,317.5 174,324.5C 171.261,333.573 165.427,339.74 156.5,343C 146.879,344.286 137.212,344.786 127.5,344.5C 127.667,356.505 127.5,368.505 127,380.5C 122.376,383.449 118.042,383.116 114,379.5C 113.333,348.5 113.333,317.5 114,286.5C 114.717,285.956 115.217,285.289 115.5,284.5 Z"/></g>
<g><path style="opacity:1" fill="#fefcfc" d="M 189.5,284.5 C 201.838,284.333 214.171,284.5 226.5,285C 235.745,287.244 242.245,292.744 246,301.5C 247.615,320.448 247.949,339.448 247,358.5C 245.18,372.32 237.347,380.153 223.5,382C 212.5,382.667 201.5,382.667 190.5,382C 189.584,381.626 188.75,381.126 188,380.5C 187.333,349.167 187.333,317.833 188,286.5C 188.717,285.956 189.217,285.289 189.5,284.5 Z"/></g>
<g><path style="opacity:1" fill="#fefdfd" d="M 266.5,284.5 C 284.503,284.333 302.503,284.5 320.5,285C 323.439,289.018 323.105,292.685 319.5,296C 305.837,296.5 292.171,296.667 278.5,296.5C 278.5,306.833 278.5,317.167 278.5,327.5C 286.174,327.334 293.841,327.5 301.5,328C 304.167,331.333 304.167,334.667 301.5,338C 293.841,338.5 286.174,338.666 278.5,338.5C 278.667,352.171 278.5,365.837 278,379.5C 273.924,383.034 269.591,383.367 265,380.5C 264.333,349.167 264.333,317.833 265,286.5C 265.717,285.956 266.217,285.289 266.5,284.5 Z"/></g>
<g><path style="opacity:1" fill="#ee7477" d="M 148.5,297.5 C 141.833,297.5 135.167,297.5 128.5,297.5C 128.5,309.167 128.5,320.833 128.5,332.5C 135.167,332.5 141.833,332.5 148.5,332.5C 141.687,333.491 134.687,333.825 127.5,333.5C 127.5,321.167 127.5,308.833 127.5,296.5C 134.687,296.175 141.687,296.509 148.5,297.5 Z"/></g>
<g><path style="opacity:1" fill="#e5262b" d="M 148.5,297.5 C 154.655,298.154 158.488,301.487 160,307.5C 161.231,314.85 160.231,321.85 157,328.5C 154.603,330.782 151.769,332.116 148.5,332.5C 141.833,332.5 135.167,332.5 128.5,332.5C 128.5,320.833 128.5,309.167 128.5,297.5C 135.167,297.5 141.833,297.5 148.5,297.5 Z"/></g>
<g><path style="opacity:1" fill="#e5282c" d="M 201.5,296.5 C 229.177,292.858 239.843,304.858 233.5,332.5C 233.333,340.5 233.167,348.5 233,356.5C 232.364,363.132 228.864,367.298 222.5,369C 215.508,369.5 208.508,369.666 201.5,369.5C 201.5,345.167 201.5,320.833 201.5,296.5 Z"/></g>
</svg>
