<?xml version="1.0" encoding="UTF-8"?>
<!DOCTYPE svg PUBLIC "-//W3C//DTD SVG 1.1//EN" "http://www.w3.org/Graphics/SVG/1.1/DTD/svg11.dtd">
<svg xmlns="http://www.w3.org/2000/svg" version="1.1" width="400px" height="400px" style="shape-rendering:geometricPrecision; text-rendering:geometricPrecision; image-rendering:optimizeQuality; fill-rule:evenodd; clip-rule:evenodd" xmlns:xlink="http://www.w3.org/1999/xlink">
<g><path style="opacity:1" fill="#6987e1" d="M 328.5,332.5 C 285.99,289.197 243.324,245.864 200.5,202.5C 199.749,201.427 198.749,201.26 197.5,202C 154.251,245.414 111.584,289.247 69.5,333.5C 37.7815,302.616 19.2815,264.949 14,220.5C 9.12281,157.468 29.2895,104.468 74.5,61.5C 124.928,19.0042 182.595,5.17092 247.5,20C 328.085,45.9471 373.918,101.114 385,185.5C 387.798,242.308 369.964,291.141 331.5,332C 330.552,332.483 329.552,332.649 328.5,332.5 Z"/></g>
<g><path style="opacity:1" fill="#f0d05d" d="M 200.5,202.5 C 223.559,258.95 246.892,315.283 270.5,371.5C 269.757,372.182 269.091,372.849 268.5,373.5C 203.807,397.273 143.474,389.44 87.5,350C 80.7469,345.333 74.7469,339.833 69.5,333.5C 111.584,289.247 154.251,245.414 197.5,202C 198.749,201.26 199.749,201.427 200.5,202.5 Z"/></g>
<g><path style="opacity:1" fill="#634f0f" d="M 200.5,202.5 C 243.324,245.864 285.99,289.197 328.5,332.5C 328.297,334.044 327.63,335.378 326.5,336.5C 309.536,352.329 290.203,364.662 268.5,373.5C 269.091,372.849 269.757,372.182 270.5,371.5C 246.892,315.283 223.559,258.95 200.5,202.5 Z"/></g>
</svg>
